<?xml version="1.0" encoding="utf-8"?>
<!-- Uploaded to: SVG Repo, www.svgrepo.com, Generator: SVG Repo Mixer Tools -->
<svg width="800px" height="800px" viewBox="0 0 64 64" xmlns="http://www.w3.org/2000/svg">
<path d="m60.78 35.68c0-6.31.15-21.22-.16-25.94s-3.19-5.06-4.78-5.12-9.41-.31-17.16-.44-19.68-.78-24.75-.53-6.93 1.13-8.93 2.66-1.88 5.4-1.94 7.4c0 0-.06 8.82-.06 16.47s.37 23 .37 25.94.94 3.22 1.25 3.31a44 44 0 0 0 4.59.16c.32-.06 4.13-6.31 7.44-11.69s12.63-19.34 13.94-21 3.72-4.69 4.75-4.56.62 1.53.62 2.12-1.37 11.19-2.5 16.54-4.31 17.31-4.25 18.4 1 1 2.16 1 5.84 0 10.53-.09 8.44-.19 12-.5 6.53-1.41 6.94-2.88-.06-14.93-.06-21.25zm-30.85 9.38c-.15-.32-1.78.15-2.06.31s-.16 3.25-.16 3.25a12.29 12.29 0 0 0 -2.28-.75 3.41 3.41 0 0 0 -2.15.28 3.77 3.77 0 0 0 0-.53 1.25 1.25 0 0 0 -.25-.66 3.56 3.56 0 0 0 .56-.47 1.78 1.78 0 0 0 .47-1.18c0-.19-.09-.25-.31-.25s-.53.68-.72.81a1.64 1.64 0 0 1 -1.16.44 4.35 4.35 0 0 1 -1.47-.07s-.28-1.09-.37-1.37-.47-.13-.69 0 .34 1.84.34 1.84a2 2 0 0 0 -.37 2.16 2.24 2.24 0 0 0 1.37 1.31 2.55 2.55 0 0 0 .16 1.19 1.32 1.32 0 0 0 1 1 14.28 14.28 0 0 0 .1 2.53c.15.28.56.16.71.12a12.31 12.31 0 0 0 0-2.43l.41.06s.16 1.81.22 2.09.5.25.69.16a8.31 8.31 0 0 0 -.07-2.13 4.63 4.63 0 0 0 1.16 0c.5-.09 1-.22 1-.22s.06 2.22.09 2.38.6.12.82 0a10.55 10.55 0 0 0 .06-2.56l.47-.37s.09 1.94.12 2.13.44 0 .59-.19a11.07 11.07 0 0 0 0-2.28l.25-.44a10.67 10.67 0 0 0 .15-2.53c.06-.62.16-2.16.22-2.28a7 7 0 0 1 1.17-.57c.18-.1.09-.47-.07-.78z" fill="#1d1d1b"/>
<path d="m7 7.24c1.3-1 3.68-1.71 7-2s16.37.47 22.56.72 16.31.41 18.34.47 3.94.94 4.1 3.75.15 13.85.15 19.75-.06 19.41-.09 22.28 0 3.66-1.22 4.57-6.25 1.59-11.19 1.68-10.62.16-12.5.16-2.78.09-2.84-.06 2.72-11.22 3.84-18 2.31-13.5 2.31-13.5a13.77 13.77 0 0 0 3.19 1c1.6.25 3.69-.25 4.44-1.91s.16-4.37-.09-5a7.41 7.41 0 0 0 -.82-1.37 8.67 8.67 0 0 0 .41-1.91 6.6 6.6 0 0 0 -.22-1.69 1.7 1.7 0 0 1 .81-.37 5.88 5.88 0 0 1 1.57 0 3.82 3.82 0 0 0 1.06 1.19c.53.28 2-.12 2.5-2a1.76 1.76 0 0 0 -1.53-2.46 3 3 0 0 0 -1.78 1.17 4.5 4.5 0 0 0 -.44 1 9.53 9.53 0 0 0 -1.47.06 10.06 10.06 0 0 0 -1.19.41 4.32 4.32 0 0 0 -1.68-2.28 4.55 4.55 0 0 0 -2.79-.9l-.87-1.87a1.55 1.55 0 0 0 .75-1.88c-.47-1.25-1.31-1.69-2.81-1.1a1.6 1.6 0 0 0 -.41 2.85 3.07 3.07 0 0 0 1.62.44l.44 1.5a2.18 2.18 0 0 0 -1.5.41 3.66 3.66 0 0 0 -.94.9 8.51 8.51 0 0 0 -4.12-.25 4 4 0 0 0 -3.53 4.25 8.33 8.33 0 0 0 2 4.59 9.93 9.93 0 0 0 1 1.16 76.53 76.53 0 0 0 -5.63 8.06c-3 4.84-8.78 14.12-10.78 17.34s-6 9.44-6.22 9.5a6.84 6.84 0 0 1 -2.81-.12c-.47-.35-.47-5.72-.4-8.78s-.38-21.44-.44-27.72-.88-11.6 2.22-14.04z" fill="#1f4863"/>
<path d="m13.78 19.53c.56 0 1.47 0 1 .93s-2.1 2.57-.72 5.32 2 2.84 2.66 3 1.34-.09 1.5.22.31.5 0 .78a6.57 6.57 0 0 1 -7.57-.78c-3.37-3-2.09-6.09-.56-7.62a6 6 0 0 1 3.69-1.85z" fill="#1d1d1b"/>
<path d="m12.84 20.84c.41-.16.31.34.22.53a4.51 4.51 0 0 0 0 4.91c1.56 2.81 1.66 2.78 1.62 2.9a3.91 3.91 0 0 1 -4.12-1.94c-1.5-2.4-.75-5.24 2.28-6.4z" fill="#cbe7f5"/>
<path d="m22.5 20.34c1.57-.32 2.62.87 2 2.62s-2 2-3.13 1a2.14 2.14 0 0 1 1.13-3.62z" fill="#1d1d1b"/>
<path d="m22.59 21.26c.88-.18 1.46.49 1.12 1.47s-1.1 1.13-1.75.55a1.19 1.19 0 0 1 .63-2.02z" fill="#ffe19b"/>
<path d="m52.94 16.58c1.26-.26 2.09.69 1.6 2.09s-1.57 1.61-2.49.79a1.7 1.7 0 0 1 .89-2.88z" fill="#1d1d1b"/>
<path d="m53 17.31c.7-.14 1.17.39.89 1.17s-.88.9-1.39.44a1 1 0 0 1 .5-1.61z" fill="#ffe19b"/>
<path d="m12.06 35.68c1-.49 2.81-.34 2.28 1.94s-2.75 2.41-3.28 1.5a2.41 2.41 0 0 1 1-3.44z" fill="#1d1d1b"/>
<path d="m12.28 36.5c.58-.28 1.58-.19 1.29 1.09s-1.55 1.35-1.85.84a1.35 1.35 0 0 1 .56-1.93z" fill="#ffe19b"/>
<path d="m15.71 12.78s-.5-.94-.34-1a1.41 1.41 0 0 1 .66-.21 7.48 7.48 0 0 1 .47 1.43h.31s.22-.81.44-.84.53 0 .46.19-.31.78-.31.78 1.06-.19 1.13 0 .28.62 0 .65l-1.1.13a.61.61 0 0 1 -.06.56 1 1 0 0 1 -.34.31s.47 1.1.22 1.29a1.38 1.38 0 0 1 -.6.21l-.34-1.4s-.91 1.09-1.16 1-.75-.47-.62-.56 1-1 1-1a6.39 6.39 0 0 1 -1.32.06c0-.1-.15-.56 0-.63s.75-.25.75-.25-.65-.15-.65-.31.34-.84.46-.75a9.94 9.94 0 0 0 .94.34z" fill="#e6e4da"/>
<path d="m24.06 10.28s-.16-.57.19-.6.9 0 .9-.12-.28-1.35-.06-1.47.66-.25.62-.06.1 1.34.1 1.34.81-.66 1-.53a1.08 1.08 0 0 1 .25.4l-.88.69a5.55 5.55 0 0 1 1.22.28c0 .1.19.53-.22.53h-1.09a5 5 0 0 0 .37.85c.19.28.41.44.25.56s-.78.34-.84.25-.37-.91-.47-1.09-.22-.41-.22-.41-.59.63-.65.59-.57-.46-.44-.56l.56-.4z" fill="#e6e4da"/>
<g fill="#8ec480">
<path d="m37.31 7.81c.88-.18 1.31.4 1.28.84s-1.22 1.06-1.69.72-.81-1.31.41-1.56z"/>
<path d="m37 13.59c.1-.13.63-.72 2.69-.31s3 1.09 3.56 2.46a4 4 0 0 1 .07 2.63 18.49 18.49 0 0 0 -3.16-2.84 15.27 15.27 0 0 0 -3.16-1.94z"/>
<path d="m48.56 13.59c.74-.33 1.06.81.84 1.56a1.09 1.09 0 0 1 -1.59.66c-.5-.35-.6-1.63.75-2.22z"/>
</g>
<path d="m44.9 8.59a1.56 1.56 0 0 1 2.44 1.15c.12 1.54-2.09 1.72-2.69.82s-.53-1.38.25-1.97z" fill="#1d1d1b"/>
<path d="m45.43 9.25a.64.64 0 0 1 1 .48c0 .62-.86.7-1.1.33s-.22-.56.1-.81z" fill="#ffe19b"/>
<path d="m50.31 25.43c.12 0 1.34.13 1.37 0s.07-1.65.41-1.65.69 0 .62.18a4 4 0 0 0 -.15 1.28c.09 0 1.19-1.06 1.37-1s.57.21.47.37-1.65 1.56-1.65 1.56a11.24 11.24 0 0 1 .12 2.1c-.12 0-.66.22-.75 0a13.11 13.11 0 0 1 -.19-1.57s-.81 1.16-1 1-.56-.62-.4-.71.87-.75.87-.75l-1.12-.19z" fill="#e6e4da"/>
<path d="m40.87 30.15a1.25 1.25 0 0 1 1.88 1.41 1.33 1.33 0 0 1 -2.41.56 1.59 1.59 0 0 1 .53-1.97z" fill="#1d1d1b"/>
<path d="m41.22 30.83a.52.52 0 0 1 .79.59.56.56 0 0 1 -1 .24.69.69 0 0 1 .21-.83z" fill="#ffe19b"/>
<path d="m40.93 45.68a1.25 1.25 0 0 1 1.88 1.41 1.33 1.33 0 0 1 -2.41.56 1.6 1.6 0 0 1 .53-1.97z" fill="#1d1d1b"/>
<path d="m41.28 46.36a.52.52 0 0 1 .79.59.56.56 0 0 1 -1 .24.67.67 0 0 1 .21-.83z" fill="#ffe19b"/>
<path d="m51.37 41a1.24 1.24 0 0 1 1.88 1.4 1.33 1.33 0 0 1 -2.41.56 1.58 1.58 0 0 1 .53-1.96z" fill="#1d1d1b"/>
<path d="m51.72 41.7a.53.53 0 0 1 .79.6.56.56 0 0 1 -1 .23.69.69 0 0 1 .21-.83z" fill="#ffe19b"/>
<path d="m51.5 51.15a1.24 1.24 0 0 1 1.87 1.41 1.33 1.33 0 0 1 -2.41.56 1.6 1.6 0 0 1 .54-1.97z" fill="#1d1d1b"/>
<path d="m51.84 51.83a.53.53 0 0 1 .8.59.56.56 0 0 1 -1 .24.67.67 0 0 1 .2-.83z" fill="#ffe19b"/>
<path d="m45 36.18s-.38-.9-.19-1.06.47-.31.53-.16.44 1.25.44 1.25.37-.75.53-.75.62 0 .59.16a4.85 4.85 0 0 1 -.4.75s1.09.16 1.09.31a3 3 0 0 1 -.16.6l-1.22.12s.72 1.78.57 1.91-.6.28-.66.18a14.63 14.63 0 0 0 -.5-1.5c-.09 0-.91 1.57-1.06 1.47s-.66-.28-.56-.4.75-.82.62-.91-.78-.06-.81-.28 0-.66.12-.69.72-.09.72-.09-.78-.38-.72-.53-.06-.6.32-.5a5.44 5.44 0 0 0 .75.12z" fill="#e6e4da"/>
<path d="m39.37 51.18s.28-.31.44-.25a6.2 6.2 0 0 1 .72 1.1s.25-.69.43-.63.41 0 .35.16-.31 1.31-.31 1.31 1.47.44 1.47.72 0 .53-.1.53-.84-.13-.84-.13.15.6 0 .66l-.25.09-.81-.93s-.41 1.28-.57 1.25l-.78-.13.06-.69s-.4 0-.5-.28-.25-1.15 0-1.18 1.25 0 1.22-.1-.5-1.28-.53-1.5z" fill="#e6e4da"/>
<path d="m20.71 47.28c.45-.08 1.47-.29 1.69.15a.91.91 0 0 1 -.25 1.31 2.1 2.1 0 0 1 -1.87.13c-.16-.19-.85-1.38.43-1.59z" fill="#f2910d"/>
<path d="m22 49.81a5.19 5.19 0 0 1 3.22-1.13c1.53.13 2.07.63 2.22 1.13a1.23 1.23 0 0 1 -.56 1.59 5.1 5.1 0 0 1 -3.66.25c-1.72-.37-1.79-1.31-1.22-1.84z" fill="#f2910d"/>
<path d="m31.84 21.9c-.06-.12-2.59-2.72-2.41-4.62s.6-4 4.63-3 6.75 2.71 8.5 5.21 1.9 4.5 1.72 5.16a4.75 4.75 0 0 1 -.35.94s-2.18-3.88-2.34-3.88-.78.41-.63.57 2.79 4.06 2.57 4.15-.69.28-.69.28-2.19-3.87-2.38-3.93-.75.18-.62.31 2.34 3.72 2.25 3.75a7.25 7.25 0 0 1 -.81 0l-1.91-3.13s-.5.16-.44.28 1.69 2.91 1.57 2.91-1.57-.56-1.79-.66l-1.15-.5s.75-3.21.09-4.12-.78-1.69-2.56-1.47a6.33 6.33 0 0 0 -3.25 1.75z" fill="#c8db89"/>
<path d="m30.56 17a1.58 1.58 0 0 1 1.06-1.22c.94-.32 1.41-.07 1.53.25s.22.62-.12.68-.94-.25-1.38.22-.15.66-.53.66-.47-.47-.56-.59z" fill="#1d1d1b"/>
</svg>