<?xml version="1.0" encoding="iso-8859-1"?>
<!-- Uploaded to: SVG Repo, www.svgrepo.com, Generator: SVG Repo Mixer Tools -->
<svg version="1.1" id="Layer_1" xmlns="http://www.w3.org/2000/svg" xmlns:xlink="http://www.w3.org/1999/xlink" 
	 viewBox="0 0 512.001 512.001" xml:space="preserve">
<path style="fill:#E4EAF8;" d="M435.574,59.323H76.427c-4.722,0-8.551,3.829-8.551,8.551v273.636h376.25V67.875
	C444.125,63.152,440.297,59.323,435.574,59.323z"/>
<path style="fill:#4DD5FF;" d="M409.421,306.772H102.579c-4.703,0-8.517-3.813-8.517-8.517V94.028c0-4.703,3.813-8.517,8.517-8.517
	h306.841c4.703,0,8.517,3.813,8.517,8.517v204.228C417.938,302.959,414.125,306.772,409.421,306.772z"/>
<path style="fill:#8BE4FF;" d="M153.387,196.142c33.059,0,59.858-26.799,59.858-59.858c0-21.814-11.706-40.844-29.142-51.307H122.67
	c-17.436,10.462-29.142,29.493-29.142,51.307C93.529,169.342,120.328,196.142,153.387,196.142z"/>
<g>
	<path style="fill:#FFC850;" d="M264.552,8.017h-17.102c-4.722,0-8.551,3.829-8.551,8.551v25.653h34.205V16.568
		C273.103,11.845,269.274,8.017,264.552,8.017z"/>
	<rect x="238.897" y="358.613" style="fill:#FFC850;" width="34.205" height="145.369"/>
	<polygon style="fill:#FFC850;" points="119.182,367.164 93.529,503.982 127.734,503.982 153.387,367.164 	"/>
	<polygon style="fill:#FFC850;" points="392.819,367.164 418.472,503.982 384.267,503.982 358.614,367.164 	"/>
</g>
<circle style="fill:#FFFFFF;" cx="153.386" cy="136.284" r="34.205"/>
<g>
	<path style="fill:#FFDC64;" d="M298.756,76.426h-85.511c-4.722,0-8.551-3.829-8.551-8.551V50.772c0-4.722,3.829-8.551,8.551-8.551
		h85.511c4.722,0,8.551,3.829,8.551,8.551v17.102C307.307,72.597,303.479,76.426,298.756,76.426z"/>
	<path style="fill:#FFDC64;" d="M452.677,367.164H59.325c-4.722,0-8.551-3.829-8.551-8.551v-17.102c0-4.722,3.829-8.551,8.551-8.551
		h393.352c4.722,0,8.551,3.829,8.551,8.551v17.102C461.228,363.335,457.399,367.164,452.677,367.164z"/>
</g>
<path style="fill:#81DEB6;" d="M235.356,164.944L96.033,304.267c1.548,1.548,3.686,2.504,6.047,2.504h196.676V204.158
	l-39.214-39.214C252.863,158.265,242.034,158.265,235.356,164.944z"/>
<path style="fill:#B4E66E;" d="M417.938,298.221V178.505l-39.213-39.213c-6.678-6.678-17.507-6.678-24.186,0l-167.481,167.48
	h222.329C414.109,306.772,417.938,302.943,417.938,298.221z"/>
<path d="M384.926,134.157c-4.744-4.744-11.051-7.357-17.762-7.357s-13.017,2.613-17.762,7.357L224.679,258.882
	c-3.131,3.131-3.131,8.206,0,11.337c3.13,3.131,8.206,3.131,11.337,0L360.74,145.494c1.716-1.716,3.998-2.662,6.424-2.662
	c2.426,0,4.708,0.945,6.424,2.662l28.315,28.315v116.929h-280.47l119.591-119.591c1.716-1.716,3.998-2.662,6.424-2.662
	s4.708,0.945,6.424,2.662l13.561,13.56c3.131,3.131,8.207,3.131,11.337,0c3.131-3.131,3.131-8.207,0-11.337l-13.561-13.56
	c-4.744-4.744-11.051-7.357-17.762-7.357c-6.71,0-13.017,2.613-17.762,7.357L96.412,293.087c-2.293,2.293-2.979,5.741-1.738,8.736
	c1.241,2.995,4.164,4.949,7.406,4.949h307.841c4.427,0,8.017-3.589,8.017-8.017V170.488c0-2.126-0.844-4.165-2.348-5.668
	L384.926,134.157z"/>
<path d="M153.387,178.505c23.28,0,42.221-18.941,42.221-42.221s-18.941-42.221-42.221-42.221s-42.221,18.941-42.221,42.221
	S130.105,178.505,153.387,178.505z M153.387,110.096c14.44,0,26.188,11.748,26.188,26.188s-11.748,26.188-26.188,26.188
	s-26.188-11.748-26.188-26.188S138.946,110.096,153.387,110.096z"/>
<path d="M452.677,324.943h-0.534V67.875c0-9.136-7.432-16.568-16.568-16.568h-120.25v-0.534c0-9.136-7.432-16.568-16.568-16.568
	h-17.637V16.568C281.119,7.432,273.687,0,264.552,0h-17.102c-9.136,0-16.568,7.432-16.568,16.568v17.637h-17.637
	c-9.136,0-16.568,7.432-16.568,16.568v0.534H76.427c-9.136,0-16.568,7.432-16.568,16.568v257.068h-0.534
	c-9.136,0-16.568,7.432-16.568,16.568v17.102c0,9.136,7.432,16.568,16.568,16.568h50.198L85.649,502.505
	c-0.816,4.351,2.05,8.542,6.402,9.357c0.499,0.093,0.996,0.139,1.487,0.139c3.782,0,7.149-2.688,7.87-6.541l24.427-130.28h17.892
	l-23.874,127.324c-0.816,4.351,2.05,8.542,6.402,9.357c0.499,0.093,0.996,0.139,1.487,0.139c3.782,0,7.149-2.688,7.87-6.541
	l14.807-78.973h80.462v77.495c0,4.427,3.589,8.017,8.017,8.017c4.427,0,8.017-3.589,8.017-8.017V375.181h18.171v128.801
	c0,4.427,3.589,8.017,8.017,8.017c4.427,0,8.017-3.589,8.017-8.017v-77.495h80.462l14.807,78.972
	c0.723,3.852,4.089,6.541,7.87,6.541c0.49,0,0.987-0.045,1.487-0.139c4.351-0.816,7.217-5.006,6.402-9.357l-23.874-127.323h17.892
	l24.427,130.279c0.723,3.852,4.089,6.541,7.87,6.541c0.49,0,0.987-0.045,1.487-0.139c4.351-0.816,7.217-5.006,6.402-9.357
	l-23.874-127.323h50.198c9.136,0,16.568-7.432,16.568-16.568v-17.102C469.244,332.375,461.812,324.943,452.677,324.943z
	 M246.915,16.568c0-0.295,0.239-0.534,0.534-0.534h17.102c0.295,0,0.534,0.239,0.534,0.534v17.637h-18.171V16.568z M212.71,50.772
	c0-0.295,0.239-0.534,0.534-0.534h85.511c0.295,0,0.534,0.239,0.534,0.534v17.102c0,0.295-0.239,0.534-0.534,0.534h-85.511
	c-0.295,0-0.534-0.239-0.534-0.534V50.772z M75.892,67.875c0-0.295,0.239-0.534,0.534-0.534h120.25v0.534
	c0,9.136,7.432,16.568,16.568,16.568h85.511c9.136,0,16.568-7.432,16.568-16.568V67.34h120.25c0.295,0,0.534,0.239,0.534,0.534
	v257.068H75.892C75.892,324.943,75.892,67.875,75.892,67.875z M230.882,410.454h-77.455l6.614-35.273h70.842v35.273H230.882z
	 M358.575,410.454h-77.455v-35.273h70.842L358.575,410.454z M453.211,358.613c0,0.295-0.239,0.534-0.534,0.534H59.325
	c-0.295,0-0.534-0.239-0.534-0.534v-17.102c0-0.295,0.239-0.534,0.534-0.534h393.352c0.295,0,0.534,0.239,0.534,0.534V358.613z"/>
</svg>