<?xml version="1.0" encoding="iso-8859-1"?>
<!-- Uploaded to: SVG Repo, www.svgrepo.com, Generator: SVG Repo Mixer Tools -->
<svg height="800px" width="800px" version="1.1" id="Layer_1" xmlns="http://www.w3.org/2000/svg" xmlns:xlink="http://www.w3.org/1999/xlink" 
	 viewBox="0 0 511.976 511.976" xml:space="preserve">
<path style="fill:#5D9CEC;" d="M501.311,335.983H10.664c-5.89,0-10.656-4.578-10.656-10.234V79.999c0-5.656,4.766,0,10.656,0
	h490.647c5.891,0,10.656-5.656,10.656,0v245.75C511.967,331.405,507.202,335.983,501.311,335.983z"/>
<polygon style="fill:#CCD1D9;" points="128.004,346.655 124.192,325.327 119.301,305.765 85.334,293.328 58.412,261.321 
	0.009,251.837 0.009,325.327 0.009,325.749 0.009,350.842 "/>
<g>
	<path style="fill:#F6BB42;" d="M202.658,207.987c-2.734,0-5.453-1.039-7.547-3.125l-21.327-21.328
		c-4.172-4.164-4.172-10.921,0-15.085c4.171-4.164,10.921-4.164,15.078,0l21.342,21.335c4.156,4.164,4.156,10.914,0,15.078
		C208.126,206.947,205.392,207.987,202.658,207.987z"/>
	<path style="fill:#F6BB42;" d="M181.33,229.321c-2.734,0-5.469-1.039-7.546-3.125c-4.172-4.164-4.172-10.921,0-15.085
		l21.327-21.328c4.172-4.164,10.922-4.171,15.093,0c4.156,4.164,4.156,10.914,0,15.078l-21.342,21.334
		C186.783,228.282,184.049,229.321,181.33,229.321z"/>
</g>
<path style="fill:#4A89DC;" d="M511.421,76.624c-1.859-5.594-7.906-8.609-13.484-6.75l-27.811,9.273l-17.375-8.695
	c-3.016-1.5-6.547-1.5-9.547,0l-16.562,8.281l-16.562-8.281c-2.999-1.5-6.53-1.5-9.546,0l-16.562,8.281l-16.562-8.281
	c-3-1.5-6.531-1.5-9.53,0l-16.561,8.281l-16.562-8.281c-3-1.5-6.547-1.5-9.547,0l-16.562,8.281l-16.562-8.281
	c-3-1.5-6.531-1.5-9.53,0l-16.57,8.281l-16.562-8.281c-3-1.5-6.531-1.5-9.531,0l-16.562,8.281l-16.562-8.281
	c-3-1.5-6.546-1.5-9.546,0l-16.562,8.281l-16.562-8.281c-3-1.5-6.531-1.5-9.531,0l-16.562,8.281l-16.562-8.281
	c-3.016-1.5-6.546-1.5-9.546,0l-16.562,8.281l-16.562-8.281c-3-1.5-6.531-1.5-9.547,0L41.85,79.148l-27.812-9.273
	c-5.578-1.859-11.624,1.156-13.483,6.75C-1.32,82.21,1.711,88.25,7.289,90.116l31.999,10.664c2.687,0.898,5.625,0.688,8.156-0.578
	l16.562-8.281l16.562,8.281c3,1.5,6.531,1.5,9.531,0l16.562-8.281l16.562,8.281c3,1.5,6.546,1.5,9.546,0l16.562-8.281l16.562,8.281
	c3,1.5,6.531,1.5,9.531,0l16.578-8.281l16.562,8.281c3,1.5,6.531,1.5,9.531,0l16.562-8.281l16.562,8.281c3,1.5,6.547,1.5,9.547,0
	l16.554-8.281l16.562,8.281c3,1.5,6.531,1.5,9.531,0l16.562-8.281l16.562,8.281c1.516,0.75,3.141,1.125,4.781,1.125
	c1.624,0,3.265-0.375,4.765-1.125l16.561-8.281l16.562,8.281c3,1.5,6.531,1.5,9.547,0l16.562-8.281l16.562,8.281
	c2.999,1.5,6.53,1.5,9.53,0l16.562-8.281l16.562,8.281c2.531,1.266,5.469,1.477,8.156,0.578l31.998-10.664
	C510.264,88.249,513.296,82.21,511.421,76.624z"/>
<path style="fill:#FFCE54;" d="M290.194,179.113c-9.156-9.148-24.241-13.789-44.866-13.789c-25.03,0-47.701,21.953-50.217,24.46
	c-4.156,4.164-4.156,10.914,0,15.078c0.25,0.25,6.188,6.148,14.968,11.999c12.391,8.265,24.25,12.46,35.249,12.46
	c52.709,0,53.318-30.694,53.318-31.999C298.646,195.698,298.24,187.167,290.194,179.113z"/>
<path style="fill:#8CC153;" d="M414.689,294.625c-2.734,0-5.469-1.047-7.546-3.125c-4.172-4.172-4.172-10.921,0-15.093
	l22.623-22.625c4.172-4.172,10.922-4.172,15.078,0c4.172,4.164,4.172,10.914,0,15.078L422.22,291.5
	C420.142,293.578,417.408,294.625,414.689,294.625z"/>
<path style="fill:#434A54;" d="M274.195,179.113c4.155,4.164,4.155,10.921,0,15.085c-4.164,4.164-10.914,4.164-15.086,0
	c-4.156-4.164-4.156-10.921,0-15.085C263.281,174.949,270.031,174.949,274.195,179.113z"/>
<path style="fill:#A0D468;" d="M422.22,276.407c-8.125-8.125-16.483-9.828-22.062-9.828c-12.984,0-22.188,8.828-23.188,9.828
	l-37.716,37.718c-2,2-3.125,4.703-3.125,7.531c0,2.843,1.125,5.546,3.125,7.546l30.169,30.17c2,2,4.719,3.125,7.547,3.125
	s5.547-1.125,7.547-3.125l37.702-37.716C431.313,312.562,438.829,293.015,422.22,276.407z"/>
<polygon style="fill:#E6E9ED;" points="85.334,293.328 58.412,261.321 0.009,251.837 50.928,291.984 56.475,314.656 
	123.238,321.547 119.301,305.765 "/>
<path style="fill:#FFCE54;" d="M501.311,314.656H10.664c-5.89,0-10.656,4.781-10.656,10.671v106.652
	c0,5.891,4.766,10.672,10.656,10.672h490.647c5.891,0,10.656-4.781,10.656-10.672V325.327
	C511.967,319.437,507.202,314.656,501.311,314.656z"/>
<g>
	<path style="fill:#F6BB42;" d="M50.21,392.45c4.172,4.155,4.172,10.905,0,15.077c-4.172,4.171-10.921,4.171-15.078,0
		c-4.172-4.172-4.172-10.922,0-15.077C39.288,388.278,46.038,388.278,50.21,392.45z"/>
	<path style="fill:#F6BB42;" d="M92.88,349.779c4.156,4.156,4.156,10.921,0,15.077c-4.171,4.172-10.921,4.172-15.093,0
		c-4.156-4.156-4.156-10.921,0-15.077C81.959,345.608,88.709,345.608,92.88,349.779z"/>
	<path style="fill:#F6BB42;" d="M135.535,392.45c4.172,4.155,4.172,10.905,0,15.077c-4.156,4.171-10.921,4.171-15.078,0
		c-4.172-4.172-4.172-10.922,0-15.077C124.613,388.278,131.379,388.278,135.535,392.45z"/>
	<path style="fill:#F6BB42;" d="M178.205,349.779c4.156,4.156,4.156,10.921,0,15.077c-4.171,4.172-10.921,4.172-15.093,0
		c-4.156-4.156-4.156-10.921,0-15.077C167.284,345.608,174.034,345.608,178.205,349.779z"/>
	<path style="fill:#F6BB42;" d="M220.876,392.45c4.156,4.155,4.156,10.905,0,15.077c-4.172,4.171-10.922,4.171-15.093,0
		c-4.156-4.172-4.156-10.922,0-15.077C209.954,388.278,216.704,388.278,220.876,392.45z"/>
	<path style="fill:#F6BB42;" d="M263.531,349.779c4.172,4.156,4.172,10.921,0,15.077c-4.156,4.172-10.922,4.172-15.078,0
		c-4.172-4.156-4.172-10.921,0-15.077C252.609,345.608,259.375,345.608,263.531,349.779z"/>
	<path style="fill:#F6BB42;" d="M306.193,392.45c4.156,4.155,4.156,10.905,0,15.077c-4.172,4.171-10.922,4.171-15.093,0
		c-4.156-4.172-4.156-10.922,0-15.077C295.271,388.278,302.021,388.278,306.193,392.45z"/>
	<path style="fill:#F6BB42;" d="M348.848,349.779c4.171,4.156,4.171,10.921,0,15.077c-4.156,4.172-10.905,4.172-15.077,0
		c-4.172-4.156-4.172-10.921,0-15.077C337.943,345.608,344.692,345.608,348.848,349.779z"/>
	<path style="fill:#F6BB42;" d="M391.518,392.45c4.172,4.155,4.172,10.905,0,15.077c-4.156,4.171-10.922,4.171-15.078,0
		c-4.172-4.172-4.172-10.922,0-15.077C380.596,388.278,387.362,388.278,391.518,392.45z"/>
	<path style="fill:#F6BB42;" d="M434.188,349.779c4.156,4.156,4.156,10.921,0,15.077c-4.172,4.172-10.921,4.172-15.093,0
		c-4.156-4.156-4.156-10.921,0-15.077C423.267,345.608,430.016,345.608,434.188,349.779z"/>
	<path style="fill:#F6BB42;" d="M476.843,392.45c4.172,4.155,4.172,10.905,0,15.077c-4.155,4.171-10.905,4.171-15.077,0
		c-4.172-4.172-4.172-10.922,0-15.077C465.938,388.278,472.688,388.278,476.843,392.45z"/>
</g>
</svg>