<?xml version="1.0" encoding="iso-8859-1"?>
<!-- Uploaded to: SVG Repo, www.svgrepo.com, Generator: SVG Repo Mixer Tools -->
<svg height="800px" width="800px" version="1.1" id="Layer_1" xmlns="http://www.w3.org/2000/svg" xmlns:xlink="http://www.w3.org/1999/xlink" 
	 viewBox="0 0 512 512" xml:space="preserve">
<path style="fill:#3F5968;" d="M454.349,490.248l-127.881-210.87h-30.992c-6.547,3.546-8.464,15.189-13.894,15.189
	c-4.535,0-8.271-8.114-12.294-8.114c-8.147,0-8.863,22.192-19.125,22.192c-12.884,0-17.022-24.022-26.882-24.022
	c-6.296,0-24.66,0-37.13,0C129.31,373.064,60.073,481.765,57.65,490.247h396.699V490.248z"/>
<path style="fill:#E4E5E6;" d="M334.266,90.633c-3.124,0-6.188,0.269-9.173,0.762c-11.29-28.136-38.809-48.01-70.982-48.01
	c-30.547,0-56.889,17.921-69.137,43.817c-2.372-0.307-4.786-0.483-7.241-0.483c-30.874,0-55.902,25.028-55.902,55.902
	s25.028,55.902,55.902,55.902l0.332,0.008c17.974,11.71,46.872,19.309,79.462,19.309c28.906,0,54.908-5.976,72.959-15.496
	l3.778,0.094c30.874,0,55.902-25.028,55.902-55.902C390.168,115.662,365.14,90.633,334.266,90.633z"/>
<path d="M137.361,428.854c-4.894-3.056-11.341-1.565-14.397,3.332c-3.312,5.307-4.528,7.244-7.197,11.498
	c-3.307,5.044-3.3,11.567,1.982,15.356c5.731,4.111,12.422,1.261,15.719-4.249c2.678-4.269,3.899-6.214,7.223-11.54
	C143.748,438.357,142.258,431.911,137.361,428.854C132.467,425.798,142.258,431.911,137.361,428.854z"/>
<path d="M206.153,317.8c-4.909-3.029-11.35-1.507-14.38,3.404c-13.864,22.463-31.115,50.419-50.042,80.852
	c-3.047,4.9-1.545,11.343,3.355,14.391c1.719,1.067,3.625,1.578,5.508,1.578c3.492,0,6.904-1.75,8.885-4.933
	c18.944-30.463,36.207-58.437,50.078-80.914C212.588,327.268,211.063,320.831,206.153,317.8z"/>
<path d="M177.734,76.27c-36.586,0-66.351,29.765-66.351,66.351s29.765,66.351,66.351,66.351c5.77,0,10.449-4.678,10.449-10.449
	s-4.679-10.449-10.449-10.449c-25.063,0-45.453-20.39-45.453-45.453s20.39-45.453,45.453-45.453c6.426,0,13.287,1.693,16.687-5.499
	c10.87-22.984,34.3-37.835,59.691-37.835c27.124,0,51.18,16.27,61.284,41.452c3.391,8.455,11.887,5.796,18.87,5.796
	c25.063,0,45.453,20.39,45.453,45.453s-20.39,45.453-45.453,45.453c-5.77,0-10.449,4.678-10.449,10.449s4.679,10.449,10.449,10.449
	c36.587,0,66.351-29.765,66.351-66.351s-29.764-66.351-66.351-66.351c-0.922,0-1.847,0.021-2.774,0.06
	c-14.778-28.983-44.35-47.307-77.381-47.307c-30.99,0-59.757,16.795-75.189,43.346C178.525,76.274,178.128,76.27,177.734,76.27z"/>
<path d="M58.271,258.831c9.167,9.166,21.356,14.216,34.321,14.216s25.153-5.049,34.321-14.216c4.08-4.08,4.08-10.697,0-14.778
	c-4.081-4.079-10.696-4.079-14.778,0c-10.776,10.776-28.31,10.776-39.085,0c-10.777-10.777-10.777-28.309-0.003-39.082
	c4.096-4.091,8.513-7.63,6.173-14.168c-5.404-15.104-1.578-32.183,9.748-43.511c4.08-4.08,4.08-10.696-0.001-14.778
	c-4.079-4.079-10.697-4.079-14.776,0.002c-15.307,15.308-21.496,37.606-16.67,58.44c-8.69,9.075-13.465,20.947-13.465,33.553
	C44.055,237.474,49.104,249.664,58.271,258.831C67.438,267.996,49.104,249.664,58.271,258.831z"/>
<path d="M411.742,252.148c-7.382,0-14.323-2.875-19.543-8.095c-4.081-4.079-10.696-4.079-14.778,0c-4.08,4.08-4.08,10.697,0,14.778
	c9.463,9.463,21.892,14.193,34.321,14.193s24.858-4.73,34.321-14.193c9.166-9.167,14.215-21.357,14.215-34.321
	c0-12.605-4.772-24.477-13.465-33.553c4.825-20.833-1.364-43.131-16.669-58.44c-4.078-4.079-10.696-4.081-14.777-0.002
	c-4.081,4.081-4.081,10.697-0.001,14.778c11.326,11.328,15.152,28.407,9.748,43.511c-2.338,6.536,2.075,10.075,6.17,14.165
	c5.22,5.219,8.095,12.161,8.095,19.543c0,7.382-2.875,14.323-8.095,19.543C426.065,249.274,419.124,252.148,411.742,252.148z"/>
<path d="M208.842,176.487c-4.43,3.699-5.024,10.288-1.326,14.717c13.972,16.739,21.987,40.516,21.987,65.239
	c0,5.771,4.678,10.449,10.449,10.449c5.77,0,10.449-4.678,10.449-10.449c0-29.972-9.533-57.896-26.842-78.631
	C219.862,173.383,213.271,172.79,208.842,176.487z"/>
<path d="M162.232,147.191c-5.77,0-10.449,4.678-10.449,10.449s4.679,10.449,10.449,10.449c7.231,0,14.345,1.508,21.142,4.481
	c5.51,2.411,12.087-0.479,14.059-6.147c1.768-5.082-0.758-10.845-5.685-13C182.293,149.287,172.362,147.191,162.232,147.191z"/>
<path d="M272.313,266.893c5.77,0,10.449-4.678,10.449-10.449c0-25.306,8.335-49.462,22.867-66.274
	c3.773-4.366,3.294-10.963-1.071-14.737c-4.366-3.772-10.964-3.295-14.738,1.072c-17.765,20.551-27.954,49.688-27.954,79.939
	C261.864,262.215,266.543,266.893,272.313,266.893z"/>
<path d="M350.034,168.089c5.77,0,10.449-4.678,10.449-10.449s-4.679-10.449-10.449-10.449c-9.411,0-18.672,1.814-27.527,5.394
	c-4.985,2.016-7.672,7.705-6.047,12.836c1.812,5.722,8.307,8.793,13.88,6.54C336.694,169.39,343.319,168.089,350.034,168.089z"/>
<path d="M266.582,167.294v-60.239c0-5.77-4.679-10.449-10.449-10.449s-10.449,4.679-10.449,10.449v60.239
	c0,5.771,4.679,10.449,10.449,10.449S266.582,173.066,266.582,167.294z"/>
<path d="M143.335,32.201h28.676c5.77,0,10.449-4.678,10.449-10.449c0-5.772-4.679-10.449-10.449-10.449h-28.676
	c-5.77,0-10.449,4.677-10.449,10.449C132.886,27.524,137.564,32.201,143.335,32.201z"/>
<path d="M10.491,32.201h95.699c5.77,0,10.449-4.678,10.449-10.449c0-5.772-4.679-10.449-10.449-10.449H10.491
	c-5.77,0-10.449,4.677-10.449,10.449C0.042,27.524,4.721,32.201,10.491,32.201z"/>
<path d="M51.549,66.964c0,5.771,4.679,10.449,10.449,10.449h63.574c5.77,0,10.449-4.678,10.449-10.449s-4.679-10.449-10.449-10.449
	H61.998C56.228,56.515,51.549,61.192,51.549,66.964z"/>
<path d="M10.491,77.413h15.981c5.77,0,10.449-4.678,10.449-10.449s-4.679-10.449-10.449-10.449H10.491
	c-5.77,0-10.449,4.678-10.449,10.449S4.721,77.413,10.491,77.413z"/>
<path d="M501.551,327.525H398.106c-5.77,0-10.449,4.678-10.449,10.449c0,5.771,4.679,10.449,10.449,10.449h103.445
	c5.77,0,10.449-4.678,10.449-10.449C512,332.203,507.321,327.525,501.551,327.525z"/>
<path d="M418.094,282.314c-5.77,0-10.449,4.678-10.449,10.449c0,5.771,4.679,10.449,10.449,10.449h31.735
	c5.77,0,10.449-4.678,10.449-10.449c0-5.771-4.679-10.449-10.449-10.449H418.094z"/>
<path d="M485.57,303.212h15.981c5.77,0,10.449-4.678,10.449-10.449c0-5.771-4.679-10.449-10.449-10.449H485.57
	c-5.77,0-10.449,4.678-10.449,10.449S479.8,303.212,485.57,303.212z"/>
<path d="M501.551,479.799h-41.318L335.402,273.961c-1.894-3.122-5.282-5.031-8.935-5.031h-30.992c-1.738,0-3.448,0.434-4.977,1.261
	c-4.92,2.666-7.936,7.041-10.146,10.703c-2.639-2.411-6.212-4.889-11.065-4.889c-10.631,0-15,9.836-17.892,16.345
	c-0.63,1.416-1.54,3.466-2.354,4.943c-1.727-1.728-4.048-5.346-5.43-7.503c-4.463-6.957-10.018-15.616-20.33-15.616h-37.13
	c-3.556,0-6.867,1.808-8.79,4.8C85.279,422.247,59.029,465.511,51.176,479.799H10.449C4.678,479.799,0,484.477,0,490.248
	c0,5.771,4.678,10.449,10.449,10.449h491.102c5.77,0,10.449-4.678,10.449-10.449C512,484.476,507.321,479.799,501.551,479.799z
	 M191.857,295.072h29.959c1.172,1.276,2.959,4.06,4.204,6.002c4.603,7.175,11.56,18.02,24.142,18.02
	c12.217,0,17.296-11.43,20.331-18.261c0.044-0.099,0.089-0.201,0.135-0.304c2.698,2.309,6.25,4.486,10.953,4.486
	c8.828,0,13.213-7.461,15.829-11.917c0.549-0.935,1.329-2.263,2.028-3.272h21.143l115.208,189.972H75.238
	C87.345,459.424,117.573,410.699,191.857,295.072z"/>
</svg>