<?xml version="1.0" encoding="iso-8859-1"?>
<!-- Uploaded to: SVG Repo, www.svgrepo.com, Generator: SVG Repo Mixer Tools -->
<svg height="800px" width="800px" version="1.1" id="Layer_1" xmlns="http://www.w3.org/2000/svg" xmlns:xlink="http://www.w3.org/1999/xlink" 
	 viewBox="0 0 512 512" xml:space="preserve">
<circle style="fill:#C4F5FF;" cx="256" cy="256" r="247.83"/>
<path style="fill:#7FB21E;" d="M40.851,256c0,11.11,0.843,22.024,2.467,32.681l21.121,65.362
	C100.095,423.57,172.491,471.149,256,471.149c69.648,0,131.555-33.105,170.876-84.426l34.151-65.362
	c6.567-20.614,10.121-42.571,10.121-65.362H40.851z"/>
<g>
	<path style="fill:#4DE1FF;" d="M215.963,288.681H43.318c3.538,23.215,10.786,45.211,21.121,65.362h151.525
		c18.05,0,32.681-14.631,32.681-32.681S234.012,288.681,215.963,288.681z"/>
	<path style="fill:#4DE1FF;" d="M461.028,321.362H360.351c-18.049,0-32.681,14.631-32.681,32.681s14.632,32.681,32.681,32.681
		h66.525C441.772,367.282,453.425,345.227,461.028,321.362z"/>
</g>
<polygon style="fill:#7FB21E;" points="327.055,132.293 291.071,223.319 363.037,223.319 "/>
<path style="fill:#89EBFF;" d="M276.698,148.902c0-22.728-18.425-41.154-41.154-41.154c-3.408,0-6.717,0.417-9.883,1.197
	c-5.521-21.622-25.128-37.609-48.47-37.609s-42.949,15.987-48.47,37.609c-3.166-0.781-6.475-1.197-9.883-1.197
	c-22.728,0-41.154,18.425-41.154,41.154H276.698z"/>
<polygon style="fill:#557714;" points="431.701,132.293 395.718,223.319 467.685,223.319 "/>
<path style="fill:#4DE1FF;" d="M269.046,386.723h-74.87c-9.024,0-16.34,7.316-16.34,16.34s7.316,16.34,16.34,16.34h74.87
	c9.024,0,16.34-7.316,16.34-16.34S278.07,386.723,269.046,386.723z"/>
<g>
	<path style="fill:#03242B;" d="M437.019,74.981C388.668,26.628,324.38,0,256,0S123.332,26.628,74.981,74.981
		C26.628,123.332,0,187.62,0,256s26.628,132.668,74.981,181.019C123.332,485.372,187.62,512,256,512s132.668-26.628,181.019-74.981
		C485.372,388.668,512,324.38,512,256S485.372,123.332,437.019,74.981z M256,495.66c-132.149,0-239.66-107.51-239.66-239.66
		S123.851,16.34,256,16.34S495.66,123.851,495.66,256S388.149,495.66,256,495.66z"/>
	<path style="fill:#03242B;" d="M77.686,157.073h199.012c4.512,0,8.17-3.658,8.17-8.17c0-27.197-22.127-49.324-49.324-49.324
		c-1.435,0-2.868,0.062-4.294,0.186c-8.712-21.877-29.98-36.598-54.058-36.598c-24.077,0-45.346,14.723-54.058,36.598
		c-1.427-0.124-2.86-0.186-4.294-0.186c-27.197,0-49.324,22.127-49.324,49.324C69.515,153.415,73.172,157.073,77.686,157.073z
		 M118.838,115.919c2.678,0,5.344,0.322,7.926,0.96c4.36,1.075,8.763-1.565,9.873-5.911c4.73-18.524,21.406-31.461,40.554-31.461
		s35.824,12.937,40.554,31.461c1.11,4.347,5.514,6.987,9.873,5.911c2.582-0.636,5.249-0.96,7.926-0.96
		c15.368,0,28.315,10.566,31.96,24.813H86.879C90.524,126.484,103.471,115.919,118.838,115.919z"/>
	<path style="fill:#03242B;" d="M85.639,313.191c-4.512,0-8.17,3.658-8.17,8.17s3.658,8.17,8.17,8.17h21.787
		c4.512,0,8.17-3.658,8.17-8.17s-3.658-8.17-8.17-8.17H85.639z"/>
	<path style="fill:#03242B;" d="M131.937,321.362c0,4.512,3.658,8.17,8.17,8.17h75.857c4.512,0,8.17-3.658,8.17-8.17
		s-3.658-8.17-8.17-8.17h-75.857C135.595,313.191,131.937,316.85,131.937,321.362z"/>
	<path style="fill:#03242B;" d="M433.105,391.865c15.554-20.227,27.725-43.179,35.662-68.01c0.011-0.034,0.023-0.068,0.033-0.101
		c6.823-21.38,10.519-44.142,10.519-67.754c0-4.512-3.658-8.17-8.17-8.17h-31.277v-16.34h27.813c2.705,0,5.235-1.339,6.756-3.576
		s1.837-5.082,0.841-7.598l-35.983-91.026c-1.232-3.118-4.244-5.167-7.598-5.167c-3.353,0-6.365,2.048-7.598,5.167l-35.984,91.026
		c-0.995,2.516-0.68,5.361,0.841,7.598c1.521,2.238,4.051,3.576,6.756,3.576h27.814v16.34h-88.307v-16.34h27.813
		c2.705,0,5.235-1.339,6.756-3.576s1.837-5.082,0.841-7.598l-35.981-91.025c-1.232-3.118-4.244-5.167-7.598-5.167
		s-6.365,2.048-7.598,5.167l-35.983,91.026c-0.995,2.516-0.68,5.361,0.841,7.598c1.521,2.238,4.051,3.576,6.756,3.576h27.813v16.34
		H213.519v-13.618c0-4.512-3.658-8.17-8.17-8.17s-8.17,3.658-8.17,8.17v13.617h-49.021v-13.617c0-4.512-3.658-8.17-8.17-8.17
		c-4.512,0-8.17,3.658-8.17,8.17v13.617h-16.34v-13.617c0-4.512-3.658-8.17-8.17-8.17c-4.512,0-8.17,3.658-8.17,8.17v13.617h-16.34
		v-13.617c0-4.512-3.658-8.17-8.17-8.17c-4.512,0-8.17,3.658-8.17,8.17v13.617H40.851c-4.512,0-8.17,3.658-8.17,8.17
		c0,35.165,7.981,68.841,23.72,100.096c0.192,0.38,0.397,0.753,0.59,1.132c0.154,0.362,0.34,0.706,0.541,1.038
		c14.961,28.9,36.447,54.663,62.294,74.607c3.571,2.755,8.703,2.096,11.46-1.477c2.756-3.572,2.095-8.703-1.477-11.46
		c-21.015-16.215-38.347-35.812-51.507-57.723h137.662c22.526,0,40.851-18.325,40.851-40.851s-18.325-40.851-40.851-40.851h-26.798
		c-4.512,0-8.17,3.658-8.17,8.17s3.658,8.17,8.17,8.17h26.798c13.516,0,24.511,10.995,24.511,24.511s-10.995,24.511-24.511,24.511
		H69.452c-7.489-15.505-13.002-31.955-16.405-49.021h103.436c4.512,0,8.17-3.658,8.17-8.17s-3.658-8.17-8.17-8.17H50.46
		c-0.634-5.401-1.07-10.85-1.281-16.34h413.64c-0.661,16.937-3.376,33.356-7.886,49.021h-94.583
		c-22.526,0-40.851,18.325-40.851,40.851c0,22.526,18.325,40.851,40.851,40.851h48.968c-37.897,41.793-92.594,68.085-153.319,68.085
		c-34.917,0-69.467-8.911-99.916-25.77c-3.948-2.184-8.92-0.758-11.105,3.191c-2.185,3.948-0.757,8.92,3.191,11.105
		c32.864,18.197,70.152,27.815,107.83,27.815c72.031,0,136.194-34.289,177.056-87.391
		C433.074,391.908,433.089,391.886,433.105,391.865z M431.702,154.517l23.968,60.632h-47.936L431.702,154.517z M327.055,154.517
		l23.968,60.632h-47.936L327.055,154.517z M360.351,378.553c-13.516,0-24.511-10.995-24.511-24.511s10.995-24.511,24.511-24.511
		h89.121c-6.717,17.614-15.771,34.081-26.785,49.021H360.351z"/>
	<path style="fill:#03242B;" d="M269.046,427.574c13.516,0,24.511-10.995,24.511-24.511s-10.995-24.511-24.511-24.511h-74.87
		c-13.516,0-24.511,10.995-24.511,24.511s10.995,24.511,24.511,24.511H269.046z M186.006,403.064c0-4.506,3.665-8.17,8.17-8.17
		h74.87c4.505,0,8.17,3.665,8.17,8.17s-3.666,8.17-8.17,8.17h-74.87C189.671,411.234,186.006,407.569,186.006,403.064z"/>
	<path style="fill:#03242B;" d="M382.138,345.872h-21.787c-4.512,0-8.17,3.658-8.17,8.17s3.658,8.17,8.17,8.17h21.787
		c4.512,0,8.17-3.658,8.17-8.17S386.65,345.872,382.138,345.872z"/>
</g>
</svg>